<svg viewBox="0 0 16 24" fill="none" xmlns="http://www.w3.org/2000/svg">
<path d="M9 1.65527C9 1.10299 8.55228 0.655273 8 0.655273C7.44772 0.655273 7 1.10299 7 1.65527L9 1.65527ZM7.29289 23.052C7.68342 23.4426 8.31658 23.4426 8.70711 23.052L15.0711 16.6881C15.4616 16.2976 15.4616 15.6644 15.0711 15.2739C14.6805 14.8833 14.0474 14.8833 13.6569 15.2739L8 20.9307L2.34315 15.2739C1.95262 14.8833 1.31946 14.8833 0.928932 15.2739C0.538407 15.6644 0.538407 16.2975 0.928932 16.6881L7.29289 23.052ZM7 1.65527L7 22.3449L9 22.3449L9 1.65527L7 1.65527Z" fill="black"/>
</svg>
