<svg viewBox="0 0 23 16" fill="none" xmlns="http://www.w3.org/2000/svg">
<path d="M1.46729 7C0.915 7 0.467285 7.44772 0.467285 8C0.467285 8.55228 0.915 9 1.46729 9V7ZM21.9102 8.70711C22.3007 8.31658 22.3007 7.68342 21.9102 7.29289L15.5462 0.928932C15.1557 0.538408 14.5225 0.538408 14.132 0.928932C13.7415 1.31946 13.7415 1.95262 14.132 2.34315L19.7888 8L14.132 13.6569C13.7415 14.0474 13.7415 14.6805 14.132 15.0711C14.5225 15.4616 15.1557 15.4616 15.5462 15.0711L21.9102 8.70711ZM1.46729 9H21.203V7H1.46729V9Z" fill="white"/>
</svg>
