<svg width="40" height="40" viewBox="0 0 40 40" fill="none" xmlns="http://www.w3.org/2000/svg">
<path d="M9.375 11.25C10.4105 11.25 11.25 10.4105 11.25 9.375C11.25 8.33947 10.4105 7.5 9.375 7.5C8.33947 7.5 7.5 8.33947 7.5 9.375C7.5 10.4105 8.33947 11.25 9.375 11.25Z" fill="black"/>
<path d="M20 11.25C21.0355 11.25 21.875 10.4105 21.875 9.375C21.875 8.33947 21.0355 7.5 20 7.5C18.9645 7.5 18.125 8.33947 18.125 9.375C18.125 10.4105 18.9645 11.25 20 11.25Z" fill="black"/>
<path d="M30.625 11.25C31.6605 11.25 32.5 10.4105 32.5 9.375C32.5 8.33947 31.6605 7.5 30.625 7.5C29.5895 7.5 28.75 8.33947 28.75 9.375C28.75 10.4105 29.5895 11.25 30.625 11.25Z" fill="black"/>
<path d="M9.375 21.875C10.4105 21.875 11.25 21.0355 11.25 20C11.25 18.9645 10.4105 18.125 9.375 18.125C8.33947 18.125 7.5 18.9645 7.5 20C7.5 21.0355 8.33947 21.875 9.375 21.875Z" fill="black"/>
<path d="M20 21.875C21.0355 21.875 21.875 21.0355 21.875 20C21.875 18.9645 21.0355 18.125 20 18.125C18.9645 18.125 18.125 18.9645 18.125 20C18.125 21.0355 18.9645 21.875 20 21.875Z" fill="black"/>
<path d="M30.625 21.875C31.6605 21.875 32.5 21.0355 32.5 20C32.5 18.9645 31.6605 18.125 30.625 18.125C29.5895 18.125 28.75 18.9645 28.75 20C28.75 21.0355 29.5895 21.875 30.625 21.875Z" fill="black"/>
<path d="M9.375 32.5C10.4105 32.5 11.25 31.6605 11.25 30.625C11.25 29.5895 10.4105 28.75 9.375 28.75C8.33947 28.75 7.5 29.5895 7.5 30.625C7.5 31.6605 8.33947 32.5 9.375 32.5Z" fill="black"/>
<path d="M20 32.5C21.0355 32.5 21.875 31.6605 21.875 30.625C21.875 29.5895 21.0355 28.75 20 28.75C18.9645 28.75 18.125 29.5895 18.125 30.625C18.125 31.6605 18.9645 32.5 20 32.5Z" fill="black"/>
<path d="M30.625 32.5C31.6605 32.5 32.5 31.6605 32.5 30.625C32.5 29.5895 31.6605 28.75 30.625 28.75C29.5895 28.75 28.75 29.5895 28.75 30.625C28.75 31.6605 29.5895 32.5 30.625 32.5Z" fill="black"/>
</svg>
