<svg width="270" height="84" viewBox="0 0 270 84" fill="none" xmlns="http://www.w3.org/2000/svg">
<path d="M29.585 24.2801H8.02862V7.01599H30.4611V0.0874934C29.9821 0.0613212 29.5899 0.0232552 29.1952 0.0232552C19.9777 0.0208759 10.7602 0.0184966 1.54267 0.0232552C0.0697969 0.0232552 0.06498 0.0351482 0.06498 1.477C0.06498 9.07407 0.06498 16.6688 0.06498 24.2658C0.06498 30.5971 0.06498 36.9261 0.06498 43.2573V61.6826H7.96123V31.3157H29.585V24.2825V24.2801Z" fill="black"/>
<path d="M179.955 22.9101C176.675 22.0583 173.318 22.0559 169.963 22.7554C166.887 23.3954 164.1 24.6041 161.631 26.5123C157.386 29.7934 154.832 34.0523 153.98 39.3296C153.172 44.3356 154.016 49.0442 156.726 53.3127C160.813 59.7486 166.875 62.806 174.504 62.9416C177.679 62.9845 180.699 62.392 183.561 61.0406C183.599 61.0216 183.64 61.0025 183.679 60.9835C191.226 57.3741 195.9 49.758 195.372 41.4186C194.809 32.5105 188.641 25.1656 179.955 22.9101ZM174.516 55.8871C167.337 56.1678 161.126 49.8413 161.147 42.5678C161.169 35.3657 167.275 29.2342 174.593 29.2723C181.845 29.3104 187.984 35.23 187.972 42.6415C187.96 49.9959 181.775 56.1559 174.516 55.8894V55.8871Z" fill="black"/>
<path d="M235.032 24.0894C235.022 23.6112 234.774 23.3495 234.291 23.3495C232.132 23.3447 229.975 23.3495 227.574 23.3495V24.9174C227.574 30.5754 227.583 36.2309 227.571 41.8889C227.566 44.3348 227.704 46.7855 227.14 49.2076C226.738 50.9254 226.158 52.5315 224.9 53.8353C223.692 55.0868 222.175 55.6293 220.486 56.0029C218.515 56.4383 216.645 56.1789 214.83 55.5674C211.552 54.4635 210.241 51.7701 209.779 48.6794C209.442 46.4214 209.403 44.1088 209.384 41.8199C209.333 36.0834 209.37 30.347 209.362 24.6129C209.362 23.3685 209.334 23.3518 208.084 23.3471C206.441 23.34 204.799 23.3352 203.156 23.3471C202.126 23.3542 202.029 23.4256 202.029 24.4178C202.041 32.1719 202.051 39.9236 202.106 47.6777C202.123 49.9071 202.677 52.0508 203.509 54.1232C205.223 58.3869 208.373 61.1588 212.809 62.2818C216.934 63.3263 221.126 63.3049 225.237 61.9463C229.049 60.6853 231.677 58.1728 233.297 54.5777C234.62 51.6345 235.013 48.5105 235.032 45.3389C235.073 38.5341 235.044 31.7317 235.044 24.9269C235.044 24.6509 235.037 24.3726 235.032 24.0966V24.0894Z" fill="black"/>
<path d="M137.714 83.5483H144.996V23.4331H137.714V83.5483Z" fill="black"/>
<path d="M63.3192 23.702C58.347 20.904 52.0007 22.2745 48.7589 26.8998C48.227 27.6588 47.7722 28.4678 47.1368 29.4885C47.0646 28.8247 46.9876 28.4059 46.9804 27.9895C46.9611 26.8427 46.9852 25.6959 46.9683 24.5491C46.9515 23.4356 46.8624 23.3523 45.7072 23.3451C43.9841 23.3356 42.2609 23.338 40.5378 23.3451C40.2321 23.3451 39.9265 23.4141 39.4885 23.4665V24.9369C39.4885 36.6454 39.4885 48.3539 39.4885 60.06C39.4885 60.2979 39.5029 60.5358 39.4885 60.7714C39.4499 61.3519 39.6858 61.6708 40.3067 61.6684C42.2296 61.6612 44.1526 61.6684 46.0755 61.6612C46.6459 61.6589 46.9756 61.3876 46.9659 60.788C46.9611 60.4716 46.9707 60.1552 46.9707 59.8387C46.9707 54.1022 46.9587 48.3681 46.978 42.6317C46.9876 39.9811 47.1103 37.3497 47.9984 34.7967C49.0621 31.7393 51.6252 29.3243 55.4229 29.3148C56.5877 29.3124 57.7381 29.3647 58.8452 29.7597C59.2616 29.9096 59.6635 30.0952 60.0437 30.3165C60.2892 30.4592 60.4119 30.5901 60.5371 30.5711C60.6141 30.5592 60.6935 30.4878 60.8042 30.326C60.9823 30.0643 61.1411 29.793 61.2928 29.517C61.5816 28.9864 61.8391 28.4225 62.1038 27.892C62.6044 26.876 63.1122 25.8648 63.6585 24.8726C63.9979 24.254 63.916 24.0375 63.3192 23.702Z" fill="black"/>
<path d="M269.514 23.7329C266.251 22.015 262.915 21.7771 259.483 23.1809C257.002 24.1968 255.267 25.9956 254.006 28.2916C253.799 28.6699 253.544 29.022 253.31 29.3861C253.209 29.3551 253.108 29.3242 253.007 29.2909V23.4331H245.65V61.5612H253.048V60.1432C253.048 54.8826 253.07 49.622 253.041 44.3613C253.024 41.2897 253.05 38.2347 253.989 35.2629C254.646 33.1834 255.693 31.3538 257.7 30.3259C260.441 28.9221 263.264 28.7936 266.054 30.2807C266.552 30.5472 266.903 30.6138 267.202 30.0071C268.066 28.2488 268.961 26.5024 269.863 24.7631C270.121 24.2682 270.02 23.9946 269.514 23.7305V23.7329Z" fill="black"/>
<path d="M123.806 61.6419V23.4233H116.499V61.5848C118.939 61.749 121.348 61.6728 123.806 61.6419Z" fill="black"/>
<path d="M120.116 10.761C122.713 10.9871 125.312 8.5578 125.319 5.91917C125.327 3.09733 123.069 0.720417 120.174 0.727555C117.161 0.734693 115.031 3.11398 114.993 5.80972C114.954 8.55542 117.491 10.9204 120.116 10.761Z" fill="black"/>
<path d="M141.357 0.734863C138.344 0.761035 136.275 3.05467 136.21 5.81941C136.145 8.54132 138.65 10.8064 141.425 10.8064C143.877 10.8064 146.705 8.57462 146.508 5.80275C146.553 3.10701 144.354 0.711073 141.36 0.737245L141.357 0.734863Z" fill="black"/>
<path d="M104.962 28.0754V23.3644H103.626C102.697 23.3501 101.007 23.3525 99.6356 23.3644H99.6308C98.4443 23.3763 97.4985 23.3929 97.4985 23.4167C97.4841 25.4415 97.4672 27.4663 97.4528 29.4934C97.4528 29.4101 97.0749 29.1365 97.0076 29.0723C96.8608 28.9319 96.7188 28.7844 96.5647 28.6488C96.3096 28.4227 96.0858 28.1729 95.85 27.9183C95.3373 27.3663 94.8055 26.831 94.2471 26.3242C93.1497 25.3297 91.9464 24.4279 90.601 23.7855C89.1667 23.1003 87.6264 22.6387 86.0573 22.3817C82.6278 21.8226 79.1477 22.4864 76.0287 23.9473C69.7906 26.8691 66.5657 32.2248 65.5718 38.7489C64.9581 42.7722 65.1988 46.8718 66.792 50.8024C67.745 53.1507 68.9098 55.3182 70.5873 57.2145C73.3333 60.3195 76.8253 62.173 80.9214 62.7202C82.8829 62.9819 84.9598 63.0057 86.8996 62.6655C90.7454 61.9922 93.8693 59.9483 96.3024 56.91C96.572 56.5721 96.8776 56.2628 97.1664 55.9416C97.2915 55.9844 97.2988 55.9868 97.4239 56.0296C97.4432 56.4008 97.472 56.772 97.4744 57.1432C97.4817 58.2519 97.4696 59.3583 97.4793 60.467C97.4913 61.621 97.525 61.6543 98.7331 61.6638C100.141 61.6757 101.547 61.6733 102.954 61.6662C104.875 61.6567 104.947 61.7281 104.957 60.1101C104.957 60.0316 104.957 59.9507 104.957 59.8722V57.8569C104.957 52.2585 104.957 46.6624 104.957 41.0639C104.957 36.7312 104.966 32.3985 104.959 28.0658L104.962 28.0754ZM95.7031 50.7167C93.6166 54.2666 90.4181 56.151 86.2137 56.3651C83.2992 56.515 80.5725 56.0844 78.1851 54.3118C75.6749 52.4464 74.0745 49.9743 73.3766 46.9693C73.1889 46.1651 73.0589 45.349 72.9362 44.5305C72.604 42.2797 72.7364 39.9766 73.4079 37.8019C74.2141 35.1942 75.6773 32.9125 78.0912 31.0661C79.8312 29.7361 81.783 28.9557 84.0092 28.87C86.4255 28.7749 88.772 28.9248 90.9837 30.0644C93.8596 31.5467 95.7898 33.8404 96.8511 36.8002C98.5647 41.5826 98.3047 46.2936 95.7031 50.7191V50.7167Z" fill="black"/>
<path d="M3.9758 77.2789C2.40906 76.6793 1.71836 76.163 1.71836 75.1138C1.71836 74.3476 2.30798 73.4316 3.85787 73.4316C4.88552 73.4316 5.64361 73.7647 6.01424 73.9646L6.41856 72.782C5.91316 72.4989 5.07083 72.2324 3.90841 72.2324C1.7015 72.2324 0.235855 73.5315 0.235855 75.2803C0.235855 76.8625 1.38142 77.8119 3.23455 78.4614C4.76759 79.0443 5.37407 79.6439 5.37407 80.6932C5.37407 81.8257 4.49804 82.6085 2.99869 82.6085C1.9879 82.6085 1.02764 82.2754 0.370627 81.8757L0 83.0915C0.606478 83.4912 1.80259 83.8077 2.89762 83.8077C5.57623 83.8077 6.87341 82.3087 6.87341 80.5766C6.87341 78.8445 5.89631 78.0117 3.9758 77.2789Z" fill="black"/>
<path d="M15.819 72.4155H14.3533V83.6434H15.819V72.4155Z" fill="black"/>
<path d="M30.9977 77.1122C30.9977 78.861 31.0314 80.2267 31.1662 81.7257L31.1325 81.7424C30.5934 80.5932 29.9364 79.4106 29.0941 78.0949L25.4552 72.4155H23.8548V83.6434H25.2362V78.8468C25.2362 76.9814 25.2025 75.6323 25.1183 74.2167L25.1688 74.2C25.7416 75.4158 26.4997 76.6983 27.2915 77.9474L30.8967 83.6434H32.3792V72.4155H30.9977V77.1122Z" fill="black"/>
<path d="M45.7217 73.4483C46.6651 73.4483 47.4569 73.6481 48.0128 73.9146L48.3666 72.7321C47.9791 72.5322 47.0863 72.2324 45.6712 72.2324C42.1502 72.2324 39.7411 74.6141 39.7411 78.1283C39.7411 81.6425 42.1502 83.8077 45.3511 83.8077C46.7325 83.8077 47.8107 83.5412 48.3498 83.2747L48.0465 82.1255C47.4569 82.4087 46.5472 82.5919 45.6543 82.5919C42.8915 82.5919 41.291 80.8264 41.291 78.0783C41.291 75.1304 43.0599 73.4483 45.7217 73.4483Z" fill="black"/>
<path d="M57.1268 78.378H61.5406V77.1789H57.1268V73.6313H61.7933V72.4155H55.6612V83.6434H62.046V82.4276H57.1268V78.378Z" fill="black"/>
<path d="M78.9432 74.0812L79.2296 75.1971L81.1333 74.1811H81.167V83.6436H82.5989V72.8154H81.3354L78.9432 74.0812Z" fill="black"/>
<path d="M95.7393 72.6323C93.4987 72.6323 91.9993 74.4311 91.9993 76.4796C91.9993 78.3283 93.2628 79.794 95.2339 79.794C96.3289 79.794 97.2049 79.3609 97.8114 78.6281H97.862C97.6598 79.9106 97.1375 80.8599 96.4131 81.5095C95.7898 82.0924 94.9812 82.4421 94.122 82.5587C93.6166 82.6087 93.246 82.642 92.9259 82.6087V83.8078C93.2797 83.8245 93.7514 83.8079 94.2905 83.7246C95.4697 83.5913 96.6322 83.0917 97.4745 82.2756C98.5527 81.243 99.3613 79.5775 99.3613 77.1958C99.3613 74.4311 97.9799 72.6323 95.7393 72.6323ZM97.7272 77.5456C97.3397 78.1951 96.5648 78.6781 95.5708 78.6781C94.2905 78.6781 93.465 77.7288 93.465 76.3797C93.465 74.8474 94.3579 73.7482 95.6214 73.7482C97.1712 73.7482 97.862 75.1639 97.862 77.0126C97.862 77.2458 97.8114 77.4123 97.7272 77.5456Z" fill="black"/>
<path d="M106.384 74.0312H111.744V74.0646L106.993 83.6436H108.526L113.293 73.7814V72.8154H106.384V74.0312Z" fill="black"/>
<path d="M126.282 72.8154H124.682L119.796 79.7273V80.6933H124.884V83.6412H126.282V80.6933H127.815V79.5441H126.282V72.8154ZM124.884 75.9299V79.5441H121.296V79.5108L123.974 75.83C124.277 75.3304 124.547 74.864 124.884 74.2311H124.934C124.901 74.7974 124.884 75.3637 124.884 75.9299Z" fill="black"/>
</svg>
