<svg width="104" height="32" viewBox="0 0 104 32" fill="none" xmlns="http://www.w3.org/2000/svg">
<path d="M14.15 0.199998V2.444H3.1V11.216H13.64V13.46H3.1V24H0.72V0.199998H14.15ZM20.122 7V9.822C21.1647 7.75933 22.9554 6.728 25.494 6.728V8.904C23.862 8.904 22.5587 9.38 21.584 10.332C20.6094 11.2613 20.122 12.6667 20.122 14.548V24H17.878V7H20.122ZM42.1602 10.332V7H44.4042V24H42.1602V20.668C40.5962 23.1613 38.3068 24.408 35.2922 24.408C32.8668 24.408 30.7928 23.5467 29.0702 21.824C27.3702 20.1013 26.5202 17.9933 26.5202 15.5C26.5202 13.0067 27.3702 10.8987 29.0702 9.176C30.7928 7.45333 32.8668 6.592 35.2922 6.592C38.3068 6.592 40.5962 7.83867 42.1602 10.332ZM30.7022 20.294C31.9942 21.586 33.5808 22.232 35.4622 22.232C37.3435 22.232 38.9302 21.586 40.2222 20.294C41.5142 18.9567 42.1602 17.3587 42.1602 15.5C42.1602 13.6187 41.5142 12.032 40.2222 10.74C38.9302 9.42533 37.3435 8.768 35.4622 8.768C33.5808 8.768 31.9942 9.42533 30.7022 10.74C29.4102 12.032 28.7642 13.6187 28.7642 15.5C28.7642 17.3587 29.4102 18.9567 30.7022 20.294ZM49.1294 1.764C49.1294 1.31067 49.288 0.925333 49.6054 0.607999C49.9227 0.290666 50.308 0.131999 50.7614 0.131999C51.2147 0.131999 51.6 0.290666 51.9174 0.607999C52.2347 0.925333 52.3934 1.31067 52.3934 1.764C52.3934 2.21733 52.2347 2.60267 51.9174 2.92C51.6 3.23733 51.2147 3.396 50.7614 3.396C50.308 3.396 49.9227 3.23733 49.6054 2.92C49.288 2.60267 49.1294 2.21733 49.1294 1.764ZM49.6394 25.36V7H51.8834V25.36C51.8834 27.4 51.3507 28.93 50.2854 29.95C49.22 30.97 47.7127 31.3893 45.7634 31.208V29.032C47.1234 29.168 48.1094 28.9413 48.7214 28.352C49.3334 27.7853 49.6394 26.788 49.6394 25.36ZM70.9053 21.858C69.16 23.558 67.052 24.408 64.5813 24.408C62.0653 24.408 59.946 23.558 58.2233 21.858C56.5006 20.1353 55.6393 18.016 55.6393 15.5C55.6393 12.984 56.5006 10.876 58.2233 9.176C59.946 7.45333 62.0653 6.592 64.5813 6.592C67.0746 6.592 69.1826 7.45333 70.9053 9.176C72.6506 10.876 73.5233 12.984 73.5233 15.5C73.5233 17.9933 72.6506 20.1127 70.9053 21.858ZM59.8213 20.294C61.1133 21.586 62.7 22.232 64.5813 22.232C66.4626 22.232 68.0493 21.586 69.3413 20.294C70.6333 18.9567 71.2793 17.3587 71.2793 15.5C71.2793 13.6187 70.6333 12.032 69.3413 10.74C68.0493 9.42533 66.4626 8.768 64.5813 8.768C62.7 8.768 61.1133 9.42533 59.8213 10.74C58.5293 12.032 57.8833 13.6187 57.8833 15.5C57.8833 17.3587 58.5293 18.9567 59.8213 20.294ZM89.2464 15.908V7H91.4904V24H89.2464V21.348C87.9771 23.388 86.0731 24.408 83.5344 24.408C81.4944 24.408 79.8738 23.7847 78.6724 22.538C77.4711 21.2687 76.8704 19.5687 76.8704 17.438V7H79.1144V17.438C79.1144 18.9567 79.5111 20.1353 80.3044 20.974C81.1204 21.8127 82.2651 22.232 83.7384 22.232C85.4384 22.232 86.7758 21.6993 87.7504 20.634C88.7478 19.5687 89.2464 17.9933 89.2464 15.908ZM98.4814 7V9.822C99.5241 7.75933 101.315 6.728 103.853 6.728V8.904C102.221 8.904 100.918 9.38 99.9434 10.332C98.9688 11.2613 98.4814 12.6667 98.4814 14.548V24H96.2374V7H98.4814Z" fill="#2C2C2C"/>
</svg>
