<svg width="223" height="74" viewBox="0 0 223 74" fill="none" xmlns="http://www.w3.org/2000/svg">
<path d="M0 3.11182C11.4388 3.11182 22.762 3.11182 34.2393 3.11182C34.2393 4.99449 34.2393 6.87716 34.2393 8.91353C25.0343 8.91353 15.8294 8.91353 6.47041 8.91353C6.47041 16.1753 6.47041 23.2834 6.47041 30.5835C15.4443 30.5835 24.3796 30.5835 33.469 30.5835C33.469 32.6199 33.469 34.5026 33.469 36.539C24.5337 36.539 15.5598 36.539 6.47041 36.539C6.47041 45.9908 6.47041 55.2889 6.47041 64.7407C15.7139 64.7407 24.9188 64.7407 34.2393 64.7407C34.2393 66.7771 34.2393 68.6597 34.2393 70.6577C22.839 70.6577 11.4773 70.6577 0 70.6577C0 48.1808 0 25.7424 0 3.11182Z" fill="#8F2326"/>
<path d="M219.493 11.9495C217.722 13.0638 216.027 14.1396 214.718 14.9465C212.253 12.8717 210.25 10.3742 207.631 9.10631C200.583 5.72517 191.724 9.45212 190.261 17.905C189.837 20.2871 190.608 22.4772 192.225 24.3983C195.499 28.2405 200.121 29.8158 204.511 31.7369C208.863 33.6196 213.215 35.5407 216.836 38.6528C220.033 41.3808 221.804 45.0693 222.112 49.2189C222.574 55.7122 220.687 61.4371 215.95 66.1246C209.21 72.7716 197.463 73.8474 189.491 68.6988C184.946 65.7403 182.173 61.6676 180.594 56.6343C180.44 56.1733 180.44 55.6738 180.324 55.059C182.404 54.4443 184.368 53.9064 186.525 53.2532C186.872 54.2906 187.218 55.2511 187.565 56.2117C189.529 61.8213 195.46 66.2783 201.199 65.9324C209.749 65.433 216.605 59.0165 215.372 49.6415C214.872 45.8377 212.522 43.0329 209.171 41.2655C204.781 38.9602 200.198 36.9238 195.73 34.7338C191.07 32.4285 186.332 29.9695 184.676 24.552C182.789 18.4813 183.444 12.7564 187.989 7.83839C192.495 2.9588 198.272 1.42191 204.511 1.99824C210.982 2.57457 216.066 5.95572 219.493 11.9495Z" fill="#8F2326"/>
<path d="M78.6848 73.9997C69.4799 50.0244 60.4675 26.6254 51.4167 3.07275C53.8816 3.07275 56.1924 3.07275 58.6959 3.07275C65.2433 20.5548 71.8293 38.1136 78.3767 55.634C78.5693 55.634 78.7618 55.634 78.9544 55.634C85.5019 38.152 92.0878 20.7084 98.6738 3.14958C101.062 3.14958 103.411 3.14958 105.914 3.14958C96.9021 26.587 87.9283 49.986 78.6848 73.9997Z" fill="#8F2326"/>
<path d="M140.539 0C149.705 23.8216 158.641 47.1054 167.653 70.6196C165.15 70.6196 162.916 70.6196 160.412 70.6196C153.942 53.3297 147.356 35.8477 140.809 18.3657C140.616 18.3273 140.462 18.3273 140.269 18.2889C133.722 35.7325 127.213 53.1376 120.627 70.6581C118.239 70.6581 115.89 70.6581 113.386 70.6581C122.399 47.259 131.372 23.8985 140.539 0Z" fill="#8F2326"/>
</svg>
