<svg viewBox="0 0 14 8" fill="none" xmlns="http://www.w3.org/2000/svg">
<path d="M13 4.5C13.2761 4.5 13.5 4.27614 13.5 4C13.5 3.72386 13.2761 3.5 13 3.5L13 4.5ZM0.646425 3.64645C0.451163 3.84171 0.451163 4.15829 0.646425 4.35355L3.82841 7.53553C4.02367 7.7308 4.34025 7.7308 4.53551 7.53553C4.73077 7.34027 4.73077 7.02369 4.53551 6.82843L1.70709 4L4.53551 1.17157C4.73078 0.97631 4.73078 0.659728 4.53551 0.464465C4.34025 0.269203 4.02367 0.269203 3.82841 0.464465L0.646425 3.64645ZM13 3.5L0.999979 3.5L0.999979 4.5L13 4.5L13 3.5Z" fill="black"/>
</svg>
