<svg viewBox="0 0 14 8" fill="none" xmlns="http://www.w3.org/2000/svg">
<path d="M1.00003 4.5C0.723888 4.5 0.500031 4.27614 0.500031 4C0.50003 3.72386 0.723888 3.5 1.00003 3.5L1.00003 4.5ZM13.3536 3.64645C13.5489 3.84171 13.5489 4.15829 13.3536 4.35355L10.1716 7.53553C9.97636 7.7308 9.65978 7.7308 9.46452 7.53553C9.26926 7.34027 9.26926 7.02369 9.46452 6.82843L12.2929 4L9.46452 1.17157C9.26926 0.97631 9.26926 0.659728 9.46452 0.464465C9.65978 0.269203 9.97636 0.269203 10.1716 0.464465L13.3536 3.64645ZM1.00003 3.5L13.0001 3.5L13.0001 4.5L1.00003 4.5L1.00003 3.5Z" fill="black"/>
</svg>
