<svg width="221" height="125" viewBox="0 0 221 125" fill="none" xmlns="http://www.w3.org/2000/svg">
<path fill-rule="evenodd" clip-rule="evenodd" d="M219.266 59.7446C219.591 60.4221 219.914 61.0976 220.182 61.7955C221.388 65.0301 220.483 66.7978 217.09 67.5877C215.809 67.9071 214.528 68.2078 213.247 68.5084L213.245 68.5092C211.963 68.8101 210.681 69.1109 209.399 69.4306C208.754 69.5839 208.133 69.8372 207.518 70.0885L207.515 70.0896C207.376 70.1462 207.238 70.2028 207.099 70.2581C205.516 70.9351 205.139 72.1763 205.817 73.6431C206.176 74.4233 206.675 75.1473 207.169 75.8636C207.247 75.9761 207.324 76.0884 207.401 76.2007C208.645 78.0437 208.569 79.0215 206.911 80.6012C206.458 81.0288 205.976 81.4263 205.53 81.7938C205.27 82.0082 205.022 82.2126 204.799 82.4066C205.116 82.8077 205.445 83.1813 205.765 83.5452C206.435 84.3073 207.068 85.0268 207.476 85.8668C208.419 87.8226 207.627 89.139 205.553 89.628C202.386 90.4178 202.047 91.0572 202.801 94.367C202.931 94.9481 203.076 95.5315 203.221 96.116L203.222 96.1177C203.67 97.916 204.121 99.7254 204.121 101.513C204.121 107.08 200.501 110.54 194.167 111.593C186.024 112.985 178.144 111.555 170.453 109.111C160.01 105.763 150.433 100.498 141.159 94.7055C126.832 85.754 113.976 74.9971 102.024 63.1119L97.9147 58.9747L96.1427 57.2069L94.4461 58.3729L94.2576 58.4857C94.1178 58.5973 93.978 58.6882 93.8228 58.7891C93.7688 58.8242 93.7128 58.8606 93.6544 58.8995C92.7495 59.52 91.8353 60.15 90.921 60.78C90.0067 61.41 89.0925 62.04 88.1876 62.6606C82.7869 66.3653 77.3839 70.0676 71.9808 73.7699C55.7713 84.8771 39.5618 95.9842 23.4159 107.155C18.3461 110.664 13.4025 114.331 8.44081 118.011C7.97851 118.354 7.51606 118.697 7.05333 119.04L6.78941 119.228C5.69606 120.056 4.64042 120.845 3.54706 121.635L0.0784912 124.193L0.493202 123.328H0.455509C0.455509 123.328 0.568624 123.102 0.794835 122.688C0.938311 122.426 1.11212 122.073 1.32588 121.638C1.44915 121.388 1.5857 121.11 1.73738 120.808C2.4384 119.401 3.41475 117.441 4.62179 115.018L4.62458 115.012C15.1696 93.8425 43.3084 37.3512 59.308 5.86738C59.5542 6.21415 59.7671 6.49986 59.9551 6.75223C60.2564 7.15673 60.4941 7.47578 60.703 7.82317C70.2038 23.0182 81.0243 37.1225 92.9004 50.5121C93.7675 51.5276 94.6346 52.5055 95.5395 53.4834H95.5772L96.7459 54.7998L98.3671 53.8219L104.626 50.0608C107.905 48.0742 111.182 46.0833 114.458 44.0925C127.867 35.9447 141.271 27.8002 154.844 19.9717C162.875 15.3286 171.152 11.1262 179.416 6.92996L179.417 6.92946C181.395 5.92514 183.372 4.92117 185.345 3.91158L192.886 0L193.526 1.39162C193.6 1.51447 193.658 1.63731 193.721 1.77065L193.722 1.77218C193.755 1.84248 193.789 1.91571 193.828 1.9934C200.215 16.5875 206.649 31.1815 213.074 45.7577L213.075 45.7589L213.083 45.7771L213.311 46.2939C215.036 50.2088 216.762 54.1224 218.485 58.0344C218.725 58.615 218.996 59.1809 219.266 59.7446ZM156.877 36.2574C156.84 35.8437 157.028 35.4675 157.367 35.2795L157.837 35.0148C159.626 34.0043 163.519 31.8059 166.227 30.5404C171.543 27.9829 178.254 25.651 184.437 23.9961C187.34 23.2062 188.811 25.4629 187.039 25.839C182.854 26.6289 169.809 31.7816 166.19 33.4741C164.778 34.134 163.35 34.8854 162.07 35.5589C160.067 36.6127 158.426 37.4756 157.782 37.4985C157.141 37.5362 156.915 36.8215 156.877 36.2574ZM187.303 33.0228C184.89 32.9852 180.215 33.3989 173.24 38.1004C165.322 43.4788 161.062 47.3528 160.685 48.6315C160.27 50.0608 161.59 50.3993 163.89 48.2178C166.19 46.0364 177.576 38.0627 181.76 36.9344C185.269 35.9994 188.092 36.2977 189.96 36.4952C190.722 36.5757 191.325 36.6395 191.751 36.5959C193.26 36.4455 192.996 33.0604 187.303 33.0228ZM186.398 40.4323C186.322 38.2132 185.003 38.0627 185.003 38.0627C183.673 37.8586 183.7 38.3928 183.801 40.3887C183.812 40.5997 183.823 40.8271 183.834 41.0716C183.847 41.294 183.856 41.5103 183.866 41.719L183.866 41.7219C183.941 43.3824 183.995 44.5611 185.267 44.4943C186.172 44.4567 186.586 44.0053 186.398 40.4323ZM189.452 38.326C189.979 38.326 190.809 38.7774 190.884 40.9588C190.96 43.1027 190.884 45.5474 188.698 47.428C186.549 49.2709 182.703 49.0829 181.082 46.9014C179.197 44.3814 178.367 40.5451 180.026 40.2818C181.157 40.0938 181.496 41.0717 181.647 42.3128C181.911 44.1934 182.477 45.2841 183.683 45.9235C184.965 46.6381 186.812 46.2244 187.793 44.6823C188.848 43.0274 188.886 41.4854 188.584 40.2442C188.283 39.003 188.547 38.326 189.452 38.326ZM183.382 50.4369C178.216 50.4745 175.992 49.7975 171.883 48.2178C169.093 47.1271 168.565 48.7444 169.545 49.6094C170.525 50.5121 174.673 52.0166 178.443 52.5807C182.213 53.1449 186.888 52.6183 188.66 52.0918C190.432 51.5652 191.714 50.1736 190.771 49.3461C190.334 48.9827 189.545 49.2163 188.387 49.559C187.148 49.9258 185.486 50.4174 183.382 50.4369Z" fill="#DBDBED"/>
<mask id="mask0_1852_26855" style="mask-type:alpha" maskUnits="userSpaceOnUse" x="0" y="0" width="221" height="125">
<path fill-rule="evenodd" clip-rule="evenodd" d="M219.266 59.7446C219.591 60.4221 219.914 61.0976 220.182 61.7955C221.388 65.0301 220.483 66.7978 217.09 67.5877C215.809 67.9071 214.528 68.2078 213.247 68.5084L213.245 68.5092C211.963 68.8101 210.681 69.1109 209.399 69.4306C208.754 69.5839 208.133 69.8372 207.518 70.0885L207.515 70.0896C207.376 70.1462 207.238 70.2028 207.099 70.2581C205.516 70.9351 205.139 72.1763 205.817 73.6431C206.176 74.4233 206.675 75.1473 207.169 75.8636C207.247 75.9761 207.324 76.0884 207.401 76.2007C208.645 78.0437 208.569 79.0215 206.911 80.6012C206.458 81.0288 205.976 81.4263 205.53 81.7938C205.27 82.0082 205.022 82.2126 204.799 82.4066C205.116 82.8077 205.445 83.1813 205.765 83.5452C206.435 84.3073 207.068 85.0268 207.476 85.8668C208.419 87.8226 207.627 89.139 205.553 89.628C202.386 90.4178 202.047 91.0572 202.801 94.367C202.931 94.9481 203.076 95.5315 203.221 96.116L203.222 96.1177C203.67 97.916 204.121 99.7254 204.121 101.513C204.121 107.08 200.501 110.54 194.167 111.593C186.024 112.985 178.144 111.555 170.453 109.111C160.01 105.763 150.433 100.498 141.159 94.7055C126.832 85.754 113.976 74.9971 102.024 63.1119L97.9147 58.9747L96.1427 57.2069L94.4461 58.3729L94.2576 58.4857C94.1178 58.5973 93.978 58.6882 93.8228 58.7891C93.7688 58.8242 93.7128 58.8606 93.6544 58.8995C92.7495 59.52 91.8353 60.15 90.921 60.78C90.0067 61.41 89.0925 62.04 88.1876 62.6606C82.7869 66.3653 77.3839 70.0676 71.9808 73.7699C55.7713 84.8771 39.5618 95.9842 23.4159 107.155C18.3461 110.664 13.4025 114.331 8.44081 118.011C7.97851 118.354 7.51606 118.697 7.05333 119.04L6.78941 119.228C5.69606 120.056 4.64042 120.845 3.54706 121.635L0.0784912 124.193L0.493202 123.328H0.455509C0.455509 123.328 0.568624 123.102 0.794835 122.688C0.938311 122.426 1.11212 122.073 1.32588 121.638C1.44915 121.388 1.5857 121.11 1.73738 120.808C2.4384 119.401 3.41475 117.441 4.62179 115.018L4.62458 115.012C15.1696 93.8425 43.3084 37.3512 59.308 5.86738C59.5542 6.21415 59.7671 6.49986 59.9551 6.75223C60.2564 7.15673 60.4941 7.47578 60.703 7.82317C70.2038 23.0182 81.0243 37.1225 92.9004 50.5121C93.7675 51.5276 94.6346 52.5055 95.5395 53.4834H95.5772L96.7459 54.7998L98.3671 53.8219L104.626 50.0608C107.905 48.0742 111.182 46.0833 114.458 44.0925C127.867 35.9447 141.271 27.8002 154.844 19.9717C162.875 15.3286 171.152 11.1262 179.416 6.92996L179.417 6.92946C181.395 5.92514 183.372 4.92117 185.345 3.91158L192.886 0L193.526 1.39162C193.6 1.51447 193.658 1.63731 193.721 1.77065L193.722 1.77218C193.755 1.84248 193.789 1.91571 193.828 1.9934C200.215 16.5875 206.649 31.1815 213.074 45.7577L213.075 45.7589L213.083 45.7771L213.311 46.2939C215.036 50.2088 216.762 54.1224 218.485 58.0344C218.725 58.615 218.996 59.1809 219.266 59.7446ZM156.877 36.2574C156.84 35.8437 157.028 35.4675 157.367 35.2795L157.837 35.0148C159.626 34.0043 163.519 31.8059 166.227 30.5404C171.543 27.9829 178.254 25.651 184.437 23.9961C187.34 23.2062 188.811 25.4629 187.039 25.839C182.854 26.6289 169.809 31.7816 166.19 33.4741C164.778 34.134 163.35 34.8854 162.07 35.5589C160.067 36.6127 158.426 37.4756 157.782 37.4985C157.141 37.5362 156.915 36.8215 156.877 36.2574ZM187.303 33.0228C184.89 32.9852 180.215 33.3989 173.24 38.1004C165.322 43.4788 161.062 47.3528 160.685 48.6315C160.27 50.0608 161.59 50.3993 163.89 48.2178C166.19 46.0364 177.576 38.0627 181.76 36.9344C185.269 35.9994 188.092 36.2977 189.96 36.4952C190.722 36.5757 191.325 36.6395 191.751 36.5959C193.26 36.4455 192.996 33.0604 187.303 33.0228ZM186.398 40.4323C186.322 38.2132 185.003 38.0627 185.003 38.0627C183.673 37.8586 183.7 38.3928 183.801 40.3887C183.812 40.5997 183.823 40.8271 183.834 41.0716C183.847 41.294 183.856 41.5103 183.866 41.719L183.866 41.7219C183.941 43.3824 183.995 44.5611 185.267 44.4943C186.172 44.4567 186.586 44.0053 186.398 40.4323ZM189.452 38.326C189.979 38.326 190.809 38.7774 190.884 40.9588C190.96 43.1027 190.884 45.5474 188.698 47.428C186.549 49.2709 182.703 49.0829 181.082 46.9014C179.197 44.3814 178.367 40.5451 180.026 40.2818C181.157 40.0938 181.496 41.0717 181.647 42.3128C181.911 44.1934 182.477 45.2841 183.683 45.9235C184.965 46.6381 186.812 46.2244 187.793 44.6823C188.848 43.0274 188.886 41.4854 188.584 40.2442C188.283 39.003 188.547 38.326 189.452 38.326ZM183.382 50.4369C178.216 50.4745 175.992 49.7975 171.883 48.2178C169.093 47.1271 168.565 48.7444 169.545 49.6094C170.525 50.5121 174.673 52.0166 178.443 52.5807C182.213 53.1449 186.888 52.6183 188.66 52.0918C190.432 51.5652 191.714 50.1736 190.771 49.3461C190.334 48.9827 189.545 49.2163 188.387 49.559C187.148 49.9258 185.486 50.4174 183.382 50.4369Z" fill="#DBDBED"/>
</mask>
<g mask="url(#mask0_1852_26855)">
<rect x="-17" y="-8" width="255" height="144" fill="#121212"/>
</g>
</svg>
