<svg width="70" height="52" viewBox="0 0 70 52" fill="none" xmlns="http://www.w3.org/2000/svg">
<g clip-path="url(#clip0_1738_25532)">
<path d="M55.5895 15.2787C55.4954 15.0332 55.3651 14.802 55.2637 14.5565C53.6855 10.9743 52.1 7.38482 50.529 3.79537C50.5073 3.75204 50.4928 3.71593 50.4711 3.67982L50.3481 3.4126L48.9001 4.16371C46.9382 5.1676 44.9546 6.1426 43.0433 7.2476C39.8 9.11815 36.6073 11.0826 33.4002 13.0254L32.1984 13.7476L31.8871 13.9354L31.6627 13.6826H31.6555C31.4817 13.4948 31.3152 13.307 31.1487 13.112C28.8682 10.5409 26.7905 7.8326 24.9661 4.91482C24.9009 4.80649 24.8213 4.7126 24.6982 4.53926C21.2739 11.2776 14.9537 23.9815 13.6434 26.6104C13.5637 26.7693 13.5058 26.892 13.4624 26.9715C13.4189 27.0509 13.3972 27.0943 13.3972 27.0943C13.3972 27.0943 13.3972 27.0943 13.4045 27.0943L13.3248 27.2604L13.9909 26.7693C14.2008 26.6176 14.4035 26.4659 14.6135 26.307L14.6642 26.2709C15.7067 25.4982 16.7419 24.7254 17.8061 23.9887C21.9399 21.1287 26.0955 18.2904 30.2437 15.4448C30.5912 15.2065 30.946 14.9609 31.2935 14.7226C31.3369 14.6937 31.3731 14.672 31.4093 14.6432L31.4455 14.6215L31.7713 14.3976L32.0464 14.672L32.0609 14.6865C32.0753 14.7009 32.0971 14.7226 32.1115 14.737L32.9007 15.5315C35.1956 17.8137 37.6643 19.8793 40.4153 21.5982C42.1963 22.7104 44.0351 23.7215 46.0405 24.3643C47.5174 24.8337 49.0305 25.1082 50.5942 24.8409C51.8105 24.6387 52.5055 23.9743 52.5055 22.9054C52.5055 22.4504 52.3534 21.9882 52.2521 21.5332C52.1073 20.8976 52.1724 20.7748 52.7806 20.6232C53.1787 20.5293 53.3308 20.2765 53.1498 19.9009C53.0339 19.6626 52.824 19.4748 52.6358 19.2365C52.7516 19.1354 52.9036 19.0198 53.0412 18.8898C53.3597 18.5865 53.3742 18.3987 53.1353 18.0448C53.0267 17.8859 52.9109 17.727 52.8312 17.5537C52.7009 17.272 52.7733 17.0337 53.0774 16.9037C53.2222 16.8459 53.367 16.7809 53.519 16.7448C54.0113 16.622 54.5036 16.5137 54.9959 16.3909C55.6474 16.2393 55.8212 15.8998 55.5895 15.2787Z" fill="black"/>
<path d="M43.5278 10.1869C43.4626 10.223 43.4264 10.2952 43.4337 10.3747C43.4409 10.483 43.4843 10.6202 43.6074 10.613C43.8101 10.6058 44.5268 10.1652 45.2218 9.84025C45.9168 9.51525 48.4217 8.5258 49.2253 8.37414C49.5656 8.30191 49.2832 7.86858 48.7258 8.02025C47.5385 8.33803 46.2498 8.7858 45.2291 9.27691C44.6571 9.54414 43.8101 10.028 43.5278 10.1869Z" fill="white"/>
<path d="M49.276 9.75383C48.8127 9.7466 47.915 9.82605 46.5757 10.7288C45.0553 11.7616 44.2373 12.5055 44.1649 12.751C44.0852 13.0255 44.3386 13.0905 44.7802 12.6716C45.2218 12.2527 47.4082 10.7216 48.2118 10.5049C49.1602 10.2522 49.8479 10.4688 50.1303 10.4399C50.4199 10.411 50.3692 9.76105 49.276 9.75383Z" fill="white"/>
<path d="M48.8344 10.7212C48.8344 10.7212 49.0877 10.7501 49.1022 11.1762C49.1384 11.8623 49.0588 11.9489 48.885 11.9562C48.6099 11.9706 48.6316 11.6817 48.6099 11.2989C48.5882 10.8078 48.552 10.6778 48.8344 10.7212Z" fill="white"/>
<path d="M49.6886 10.772C49.79 10.772 49.9493 10.8586 49.9637 11.2775C49.9782 11.6892 49.9638 12.1586 49.5439 12.5198C49.1312 12.8736 48.3928 12.8375 48.0815 12.4186C47.7195 11.9347 47.5602 11.1981 47.8788 11.1475C48.0959 11.1114 48.1611 11.2992 48.19 11.5375C48.2407 11.8986 48.3493 12.1081 48.581 12.2309C48.8271 12.3681 49.1819 12.2886 49.3701 11.9925C49.5728 11.6747 49.5801 11.3786 49.5221 11.1403C49.4642 10.902 49.5149 10.772 49.6886 10.772Z" fill="white"/>
<path d="M46.315 12.6712C47.1041 12.9745 47.5312 13.1045 48.523 13.0973C49.3049 13.0901 49.7683 12.7434 49.942 12.8879C50.123 13.0468 49.8768 13.314 49.5366 13.4151C49.1963 13.5162 48.2986 13.6173 47.5747 13.509C46.8507 13.4007 46.0544 13.1118 45.8661 12.9384C45.6779 12.7723 45.7792 12.4618 46.315 12.6712Z" fill="white"/>
<path d="M13.3098 33.269C15.4599 33.269 17.5883 33.269 19.7457 33.269C19.7457 33.6229 19.7457 33.9768 19.7457 34.3596C18.0155 34.3596 16.2852 34.3596 14.526 34.3596C14.526 35.7246 14.526 37.0607 14.526 38.4329C16.2128 38.4329 17.8924 38.4329 19.601 38.4329C19.601 38.8157 19.601 39.1696 19.601 39.5524C17.9214 39.5524 16.2345 39.5524 14.526 39.5524C14.526 41.329 14.526 43.0768 14.526 44.8535C16.2635 44.8535 17.9938 44.8535 19.7457 44.8535C19.7457 45.2363 19.7457 45.5902 19.7457 45.9657C17.6028 45.9657 15.4671 45.9657 13.3098 45.9657C13.3098 41.7407 13.3098 37.5229 13.3098 33.269Z" fill="#8F2326"/>
<path d="M54.5682 34.9302C54.2351 35.1397 53.9166 35.3419 53.6705 35.4936C53.2071 35.1036 52.8307 34.6341 52.3384 34.3958C51.0135 33.7602 49.3484 34.4608 49.0733 36.0497C48.9937 36.4975 49.1385 36.9091 49.4425 37.2703C50.0579 37.9925 50.9267 38.2886 51.752 38.6497C52.57 39.0036 53.3881 39.3647 54.0686 39.9497C54.6695 40.4625 55.0025 41.1558 55.0605 41.9358C55.1473 43.1564 54.7926 44.2325 53.9021 45.1136C52.6352 46.363 50.4271 46.5652 48.9285 45.5975C48.0743 45.0414 47.553 44.2758 47.2562 43.3297C47.2272 43.243 47.2272 43.1491 47.2055 43.0336C47.5964 42.918 47.9657 42.8169 48.3711 42.6941C48.4362 42.8891 48.5014 43.0697 48.5666 43.2502C48.9358 44.3047 50.0507 45.1425 51.1294 45.0775C52.7365 44.9836 54.0252 43.7775 53.7935 42.0152C53.6994 41.3002 53.2578 40.773 52.628 40.4408C51.8026 40.0075 50.9411 39.6247 50.1013 39.213C49.2253 38.7797 48.3349 38.3175 48.0236 37.2991C47.6688 36.158 47.7919 35.0819 48.6462 34.1575C49.4932 33.2402 50.5792 32.9514 51.752 33.0597C52.9682 33.168 53.9238 33.8036 54.5682 34.9302Z" fill="#8F2326"/>
<path d="M28.1002 46.5939C26.37 42.0873 24.6759 37.6889 22.9746 33.2617C23.4379 33.2617 23.8723 33.2617 24.3429 33.2617C25.5736 36.5478 26.8116 39.8484 28.0423 43.1417C28.0785 43.1417 28.1147 43.1417 28.1509 43.1417C29.3816 39.8556 30.6196 36.5767 31.8576 33.2762C32.3064 33.2762 32.748 33.2762 33.2186 33.2762C31.5246 37.6817 29.8377 42.08 28.1002 46.5939Z" fill="#8F2326"/>
<path d="M39.727 32.6841C41.45 37.1619 43.1296 41.5385 44.8237 45.9585C44.3531 45.9585 43.9332 45.9585 43.4626 45.9585C42.2464 42.7085 41.0084 39.4224 39.7777 36.1363C39.7415 36.1291 39.7125 36.1291 39.6763 36.1219C38.4456 39.4007 37.2221 42.6724 35.9841 45.9657C35.5353 45.9657 35.0937 45.9657 34.6231 45.9657C36.3172 41.5674 38.004 37.1763 39.727 32.6841Z" fill="#8F2326"/>
</g>
<defs>
<clipPath id="clip0_1738_25532">
<rect width="70" height="52" fill="white"/>
</clipPath>
</defs>
</svg>
