<svg width="24" height="24" viewBox="0 0 24 24" fill="none" xmlns="http://www.w3.org/2000/svg">
<path fill-rule="evenodd" clip-rule="evenodd" d="M2.8002 11.0002C2.8002 6.47146 6.47146 2.8002 11.0002 2.8002C15.5289 2.8002 19.2002 6.47146 19.2002 11.0002C19.2002 15.5289 15.5289 19.2002 11.0002 19.2002C6.47146 19.2002 2.8002 15.5289 2.8002 11.0002ZM11.0002 1.2002C5.5878 1.2002 1.2002 5.5878 1.2002 11.0002C1.2002 16.4126 5.5878 20.8002 11.0002 20.8002C13.4184 20.8002 15.632 19.9243 17.3412 18.4725L20.4345 21.5659C20.7469 21.8783 21.2535 21.8783 21.5659 21.5659C21.8783 21.2535 21.8783 20.7469 21.5659 20.4345L18.4725 17.3412C19.9243 15.632 20.8002 13.4184 20.8002 11.0002C20.8002 5.5878 16.4126 1.2002 11.0002 1.2002Z" fill="#232226"/>
</svg>
